<svg width="248" height="248" viewBox="0 0 248 248" fill="none" xmlns="http://www.w3.org/2000/svg">
<path d="M41.85 212.156C42.0438 212.156 42.0437 212.156 42.2375 212.156C42.4312 212.156 42.4313 212.156 42.625 212.156C42.8187 212.156 42.8188 212.156 43.0125 212.156C43.2063 212.156 43.2062 212.156 43.4 212.156C43.5937 212.156 43.5938 212.156 43.7875 211.963C43.9813 211.963 43.9812 211.963 44.175 211.769C44.3687 211.769 44.3687 211.575 44.5625 211.575H44.7563C44.7563 211.575 44.95 211.575 44.95 211.381C45.1438 211.381 45.1437 211.188 45.3375 211.188C45.5312 211.188 45.5313 210.994 45.725 210.994C45.9188 210.994 45.9187 210.8 46.1125 210.8L46.3062 210.606C46.3062 210.606 46.5 210.413 46.5 210.219C46.5 210.025 46.6938 210.025 46.6938 209.831C46.6938 209.831 46.6938 209.831 46.8875 209.638C46.8875 209.638 46.8875 209.444 47.0812 209.444C47.0812 209.444 47.0812 209.25 47.275 209.25V209.056C47.275 208.863 47.4688 208.863 47.4688 208.669C47.4688 208.475 47.6625 208.475 47.6625 208.281C47.6625 208.088 47.6625 208.088 47.8563 207.894C47.8563 207.7 47.8563 207.7 47.8563 207.506C47.8563 207.313 47.8563 207.313 47.8563 207.119C47.8563 206.925 47.8563 206.925 47.8563 206.731C47.8563 206.538 47.8563 206.538 47.8563 206.344V206.15V205.956C47.8563 205.763 47.8563 205.763 47.8563 205.569C47.8563 205.375 47.8563 205.375 47.8563 205.181C47.8563 204.988 47.8563 204.988 47.8563 204.794C47.8563 204.6 47.8563 204.6 47.8563 204.406C47.8563 204.213 47.8563 204.213 47.6625 204.019C47.6625 203.825 47.6625 203.825 47.4688 203.631C47.4688 203.438 47.275 203.438 47.275 203.244V203.05C47.275 203.05 47.275 202.856 47.0812 202.856C47.0812 202.663 46.8875 202.663 46.8875 202.469C46.8875 202.275 46.6938 202.275 46.6938 202.081C46.6938 201.888 46.5 201.888 46.5 201.694L46.3062 201.5C46.3062 201.5 46.1125 201.306 45.9188 201.306C45.725 201.306 45.725 201.113 45.5312 201.113C45.3375 201.113 45.3375 200.919 45.1437 200.919C45.1437 200.919 44.95 200.919 44.95 200.725H44.7563C44.5625 200.725 44.5625 200.531 44.3687 200.531C44.175 200.531 44.175 200.338 43.9813 200.338C43.7875 200.338 43.7875 200.338 43.5938 200.144C43.4 200.144 43.4 200.144 43.2062 200.144C43.0125 200.144 43.0125 200.144 42.8188 200.144C42.625 200.144 42.625 200.144 42.4312 200.144C42.2375 200.144 42.2375 200.144 42.0438 200.144H41.85H41.6562C41.4625 200.144 41.4625 200.144 41.2687 200.144C41.075 200.144 41.075 200.144 40.8813 200.144C40.6875 200.144 40.6875 200.144 40.4937 200.144C40.3 200.144 40.3 200.144 40.1063 200.144C39.9125 200.144 39.9125 200.144 39.7188 200.338C39.525 200.338 39.525 200.338 39.3312 200.531C39.1375 200.531 39.1375 200.725 38.9438 200.725H38.75C38.75 200.725 38.5562 200.725 38.5562 200.919C38.5562 200.919 38.3625 200.919 38.3625 201.113C38.3625 201.113 38.3625 201.113 38.1688 201.306C37.975 201.306 37.975 201.5 37.7812 201.5C37.5875 201.5 37.5875 201.694 37.3937 201.694L37.2 201.888C37.2 201.888 37.0063 202.081 37.0063 202.275C37.0063 202.469 36.8125 202.469 36.8125 202.663C36.8125 202.856 36.6187 202.856 36.6187 203.05C36.6187 203.05 36.6187 203.244 36.425 203.244V203.438C36.425 203.631 36.2313 203.631 36.2313 203.825C36.2313 204.019 36.0375 204.019 36.0375 204.213C36.0375 204.406 36.0375 204.406 35.8438 204.6C35.8438 204.794 35.8438 204.794 35.8438 204.988C35.8438 205.181 35.8438 205.181 35.8438 205.375C35.8438 205.569 35.8438 205.569 35.8438 205.763C35.8438 205.956 35.8438 205.956 35.8438 206.15V206.344V206.538C35.8438 206.731 35.8438 206.731 35.8438 206.925C35.8438 207.119 35.8438 207.119 35.8438 207.313C35.8438 207.506 35.8438 207.506 35.8438 207.7C35.8438 207.894 35.8438 207.894 35.8438 208.088C35.8438 208.281 35.8438 208.281 36.0375 208.475C36.0375 208.669 36.0375 208.669 36.2313 208.863C36.2313 209.056 36.425 209.056 36.425 209.25V209.444C36.425 209.444 36.425 209.638 36.6187 209.638C36.6187 209.831 36.8125 209.831 36.8125 210.025C36.8125 210.219 37.0063 210.219 37.0063 210.413C37.0063 210.606 37.2 210.606 37.2 210.8C37.2 210.8 37.2 210.8 37.3937 210.994C37.3937 210.994 37.3937 210.994 37.5875 211.188C37.5875 211.188 37.7813 211.381 37.975 211.381C38.1688 211.381 38.1687 211.575 38.3625 211.575C38.5562 211.575 38.5563 211.769 38.75 211.769C38.75 211.769 38.9438 211.769 38.9438 211.963C38.9438 212.156 39.1375 211.963 39.1375 211.963C39.3313 211.963 39.3312 212.156 39.525 212.156C39.7187 212.156 39.7188 212.35 39.9125 212.35C40.1063 212.35 40.1062 212.35 40.3 212.544C40.4937 212.544 40.4938 212.544 40.6875 212.544C40.8812 212.544 40.8813 212.544 41.075 212.544C41.2688 212.544 41.2687 212.544 41.4625 212.544C41.6562 212.544 41.6563 212.544 41.85 212.544C41.4625 212.156 41.6563 212.156 41.85 212.156Z" fill="#163A59"/>
<path d="M235.794 137.756L198.012 72.2687L144.925 103.075L175.731 49.7938L110.05 12.0125L79.4375 65.1V3.875H3.875V206.344C3.875 227.269 20.7312 244.125 41.6562 244.125H244.125V168.562H182.706L235.794 137.756ZM225.331 135.044L186.775 157.325L156.744 105.206L195.3 82.925L225.331 135.044ZM149.963 109.081L179.994 161.006L136.4 186.194L116.638 152.094L137.175 116.638L149.963 109.081ZM71.6875 122.062V168.562H11.625V122.062H71.6875ZM11.625 114.312V63.9375H71.6875V114.312H11.625ZM79.4375 130.781L109.856 148.219L79.4375 200.919V130.781ZM112.181 159.844L129.812 190.262L77.3063 220.681L112.181 159.844ZM125.938 201.306V236.375H65.2938L125.938 201.306ZM112.956 22.6687L165.075 52.7L142.794 91.2562L90.675 61.225L112.956 22.6687ZM86.8 68.0062L138.919 98.0375L113.731 141.631L79.4375 121.869V80.6L86.8 68.0062ZM71.6875 11.625V56.1875H11.625V11.625H71.6875ZM11.625 206.344V176.312H71.6875V206.344C71.6875 222.812 58.125 236.375 41.6562 236.375C25.1875 236.375 11.625 222.812 11.625 206.344ZM236.375 236.375H191.812V176.312H236.375V236.375ZM184.062 176.312V236.375H133.688V196.85L169.144 176.312H184.062Z" fill="#163A59"/>
</svg>
