<svg width="248" height="248" viewBox="0 0 248 248" fill="none" xmlns="http://www.w3.org/2000/svg">
<g clip-path="url(#clip0_27_451)">
<path d="M205.375 24.2188H138.531V28.0938C138.531 36.6188 131.556 43.5938 123.031 43.5938H61.0314V53.2812H-0.581055L20.7314 74.5938H33.9064V216.031H8.71895V223.781H33.9064H64.9064H68.7814V99.7812H115.281V119.156H124.969H128.844C132.138 119.156 134.656 121.675 134.656 124.969V178.637H127.875L100.75 194.331V213.706C100.75 219.131 105.206 223.781 110.825 223.781H172.244C177.669 223.781 182.319 219.325 182.319 213.706V199.175V192.975V192.781L175.538 181.544V115.475C175.538 106.95 182.513 99.975 191.038 99.975H205.569C226.494 99.975 243.35 83.1187 243.35 62.1937C243.156 41.075 226.3 24.2188 205.375 24.2188ZM18.0189 61.0312H61.0314V66.8438H23.8314L18.0189 61.0312ZM41.6564 216.031V210.219H55.2189V202.469H41.6564V196.656H55.2189V188.906H41.6564V183.094H55.2189V175.344H41.6564V169.531H55.2189V161.781H41.6564V155.969H55.2189V148.219H41.6564V142.406H55.2189V134.656H41.6564V128.844H55.2189V121.094H41.6564V115.281H55.2189V107.531H41.6564V101.719H55.2189V93.9688H41.6564V88.1562H55.2189V80.4062H41.6564V74.5938H61.0314V95.9062V216.031H41.6564ZM123.031 111.406V99.7812H124.969V111.406H123.031ZM174.375 213.512C174.375 214.675 173.406 215.838 172.05 215.838H110.825C109.663 215.838 108.5 214.869 108.5 213.512V198.787L129.038 186.969L138.144 199.175H174.375V213.512ZM167.594 115.281V183.481L172.244 191.231H142.019L138.338 186.194H142.406V124.775C142.406 118.575 138.338 113.537 132.719 111.794V99.5875H173.6C169.919 103.85 167.594 109.275 167.594 115.281ZM205.375 92.0312H68.7814V51.3438H123.031C134.463 51.3438 144.15 43.0125 145.894 31.9688H205.375C221.844 31.9688 235.406 45.5312 235.406 62C235.406 78.4688 221.844 92.0312 205.375 92.0312Z" fill="#163A59"/>
<path d="M205.375 37.7812H186V45.5312H205.375V37.7812Z" fill="#163A59"/>
<path d="M205.375 51.3438H186V59.0938H205.375V51.3438Z" fill="#163A59"/>
</g>
<defs>
<clipPath id="clip0_27_451">
<rect width="248" height="248" fill="white"/>
</clipPath>
</defs>
</svg>
