<svg width="248" height="248" viewBox="0 0 248 248" fill="none" xmlns="http://www.w3.org/2000/svg">
<path d="M158.875 114.119C151.319 107.338 146.863 97.65 146.863 87.7687V71.6875C146.863 60.2562 138.725 50.7625 127.875 48.825V3.875H120.125V48.825C109.081 50.375 100.363 60.0625 100.363 71.6875V88.35C100.363 98.2312 96.294 107.531 89.1252 113.925C76.919 124.775 70.5252 140.469 71.8815 156.938C73.819 182.706 94.744 203.438 120.706 205.181C121.869 205.181 123.031 205.375 124.194 205.375C138.144 205.375 151.319 199.95 161.2 190.069C170.888 180.188 176.313 167.012 176.313 153.062C176.313 138.144 169.919 124 158.875 114.119ZM108.113 71.6875C108.113 63.1625 115.088 56.1875 123.613 56.1875C132.138 56.1875 139.113 63.1625 139.113 71.6875V87.1875H108.113V71.6875ZM155.581 184.644C147.056 192.975 135.819 197.625 124 197.625C123.031 197.625 122.063 197.625 121.094 197.625C99.0065 196.269 81.1815 178.638 79.6315 156.55C78.6627 142.6 83.894 129.231 94.3565 119.931C101.525 113.538 106.175 104.625 107.725 95.1312H120.125V139.694H106.95V147.444H140.856V139.694H127.875V94.9375H139.888C141.631 104.431 146.475 113.15 153.838 119.931C163.138 128.263 168.563 140.469 168.563 153.062C168.563 164.881 163.913 176.119 155.581 184.644Z" fill="#163A59"/>
<g opacity="0.3">
<path d="M56.3813 121.114H37.0063V128.864H56.3813V121.114Z" fill="#163A59"/>
<path d="M78.8799 175.732L73.3999 170.252L59.6998 183.952L65.1799 189.432L78.8799 175.732Z" fill="#163A59"/>
<path d="M127.875 192.801H120.125V212.176H127.875V192.801Z" fill="#163A59"/>
<path d="M188.191 183.879L174.491 170.177L169.01 175.657L182.71 189.359L188.191 183.879Z" fill="#163A59"/>
<path d="M210.994 121.114H191.619V128.864H210.994V121.114Z" fill="#163A59"/>
<path d="M188.236 66.1884L182.756 60.7084L169.056 74.4084L174.536 79.8885L188.236 66.1884Z" fill="#163A59"/>
<path d="M78.9271 74.5033L65.2271 60.8032L59.747 66.2832L73.4471 79.9833L78.9271 74.5033Z" fill="#163A59"/>
</g>
</svg>
