<svg width="248" height="248" viewBox="0 0 248 248" fill="none" xmlns="http://www.w3.org/2000/svg">
<path d="M40.6875 244.125H3.875V3.875H40.6875V244.125ZM11.625 236.375H32.9375V11.625H11.625V236.375Z" fill="#163A59"/>
<path d="M81.375 244.125H44.5625V145.312H81.375V244.125ZM52.3125 236.375H73.625V153.062H52.3125V236.375Z" fill="#163A59"/>
<path d="M81.375 141.438H44.5625V3.875H81.375V141.438ZM52.3125 133.688H73.625V11.625H52.3125V133.688Z" fill="#163A59"/>
<path d="M40.6875 244.125H3.875V3.875H40.6875V244.125ZM11.625 236.375H32.9375V11.625H11.625V236.375Z" fill="#163A59"/>
<path d="M81.375 244.125H44.5625V145.312H81.375V244.125ZM52.3125 236.375H73.625V153.062H52.3125V236.375Z" fill="#163A59"/>
<path d="M81.375 141.438H44.5625V3.875H81.375V141.438ZM52.3125 133.688H73.625V11.625H52.3125V133.688Z" fill="#163A59"/>
<g opacity="0.3">
<path d="M58.125 130.781C59.7301 130.781 61.0312 129.48 61.0312 127.875C61.0312 126.27 59.7301 124.969 58.125 124.969C56.5199 124.969 55.2188 126.27 55.2188 127.875C55.2188 129.48 56.5199 130.781 58.125 130.781Z" fill="#163A59"/>
</g>
<g opacity="0.3">
<path d="M67.8125 130.781C69.4176 130.781 70.7188 129.48 70.7188 127.875C70.7188 126.27 69.4176 124.969 67.8125 124.969C66.2074 124.969 64.9062 126.27 64.9062 127.875C64.9062 129.48 66.2074 130.781 67.8125 130.781Z" fill="#163A59"/>
</g>
<g opacity="0.3">
<path d="M17.4375 233.469C19.0426 233.469 20.3438 232.168 20.3438 230.562C20.3438 228.957 19.0426 227.656 17.4375 227.656C15.8324 227.656 14.5312 228.957 14.5312 230.562C14.5312 232.168 15.8324 233.469 17.4375 233.469Z" fill="#163A59"/>
</g>
<g opacity="0.3">
<path d="M27.125 233.469C28.7301 233.469 30.0312 232.168 30.0312 230.562C30.0312 228.957 28.7301 227.656 27.125 227.656C25.5199 227.656 24.2188 228.957 24.2188 230.562C24.2188 232.168 25.5199 233.469 27.125 233.469Z" fill="#163A59"/>
</g>
<g opacity="0.3">
<path d="M17.4375 20.3438C19.0426 20.3438 20.3438 19.0426 20.3438 17.4375C20.3438 15.8324 19.0426 14.5312 17.4375 14.5312C15.8324 14.5312 14.5312 15.8324 14.5312 17.4375C14.5312 19.0426 15.8324 20.3438 17.4375 20.3438Z" fill="#163A59"/>
</g>
<g opacity="0.3">
<path d="M27.125 20.3438C28.7301 20.3438 30.0312 19.0426 30.0312 17.4375C30.0312 15.8324 28.7301 14.5312 27.125 14.5312C25.5199 14.5312 24.2188 15.8324 24.2188 17.4375C24.2188 19.0426 25.5199 20.3438 27.125 20.3438Z" fill="#163A59"/>
</g>
<g opacity="0.3">
<path d="M58.125 161.781C59.7301 161.781 61.0312 160.48 61.0312 158.875C61.0312 157.27 59.7301 155.969 58.125 155.969C56.5199 155.969 55.2188 157.27 55.2188 158.875C55.2188 160.48 56.5199 161.781 58.125 161.781Z" fill="#163A59"/>
</g>
<g opacity="0.3">
<path d="M67.8125 161.781C69.4176 161.781 70.7188 160.48 70.7188 158.875C70.7188 157.27 69.4176 155.969 67.8125 155.969C66.2074 155.969 64.9062 157.27 64.9062 158.875C64.9062 160.48 66.2074 161.781 67.8125 161.781Z" fill="#163A59"/>
</g>
<path d="M122.062 244.125H85.25V3.875H122.062V244.125ZM93 236.375H114.312V11.625H93V236.375Z" fill="#163A59"/>
<path d="M162.75 244.125H125.938V106.562H162.75V244.125ZM133.688 236.375H155V114.312H133.688V236.375Z" fill="#163A59"/>
<path d="M162.75 102.688H125.938V3.875H162.75V102.688ZM133.688 94.9375H155V11.625H133.688V94.9375Z" fill="#163A59"/>
<path d="M122.062 244.125H85.25V3.875H122.062V244.125ZM93 236.375H114.312V11.625H93V236.375Z" fill="#163A59"/>
<path d="M162.75 244.125H125.938V106.562H162.75V244.125ZM133.688 236.375H155V114.312H133.688V236.375Z" fill="#163A59"/>
<path d="M162.75 102.688H125.938V3.875H162.75V102.688ZM133.688 94.9375H155V11.625H133.688V94.9375Z" fill="#163A59"/>
<g opacity="0.3">
<path d="M139.5 92.0312C141.105 92.0312 142.406 90.7301 142.406 89.125C142.406 87.5199 141.105 86.2188 139.5 86.2188C137.895 86.2188 136.594 87.5199 136.594 89.125C136.594 90.7301 137.895 92.0312 139.5 92.0312Z" fill="#163A59"/>
</g>
<g opacity="0.3">
<path d="M149.188 92.0312C150.793 92.0312 152.094 90.7301 152.094 89.125C152.094 87.5199 150.793 86.2188 149.188 86.2188C147.582 86.2188 146.281 87.5199 146.281 89.125C146.281 90.7301 147.582 92.0312 149.188 92.0312Z" fill="#163A59"/>
</g>
<g opacity="0.3">
<path d="M98.8125 233.469C100.418 233.469 101.719 232.168 101.719 230.562C101.719 228.957 100.418 227.656 98.8125 227.656C97.2074 227.656 95.9062 228.957 95.9062 230.562C95.9062 232.168 97.2074 233.469 98.8125 233.469Z" fill="#163A59"/>
</g>
<g opacity="0.3">
<path d="M108.5 233.469C110.105 233.469 111.406 232.168 111.406 230.562C111.406 228.957 110.105 227.656 108.5 227.656C106.895 227.656 105.594 228.957 105.594 230.562C105.594 232.168 106.895 233.469 108.5 233.469Z" fill="#163A59"/>
</g>
<g opacity="0.3">
<path d="M98.8125 20.3438C100.418 20.3438 101.719 19.0426 101.719 17.4375C101.719 15.8324 100.418 14.5312 98.8125 14.5312C97.2074 14.5312 95.9062 15.8324 95.9062 17.4375C95.9062 19.0426 97.2074 20.3438 98.8125 20.3438Z" fill="#163A59"/>
</g>
<g opacity="0.3">
<path d="M108.5 20.3438C110.105 20.3438 111.406 19.0426 111.406 17.4375C111.406 15.8324 110.105 14.5312 108.5 14.5312C106.895 14.5312 105.594 15.8324 105.594 17.4375C105.594 19.0426 106.895 20.3438 108.5 20.3438Z" fill="#163A59"/>
</g>
<g opacity="0.3">
<path d="M139.5 123.031C141.105 123.031 142.406 121.73 142.406 120.125C142.406 118.52 141.105 117.219 139.5 117.219C137.895 117.219 136.594 118.52 136.594 120.125C136.594 121.73 137.895 123.031 139.5 123.031Z" fill="#163A59"/>
</g>
<g opacity="0.3">
<path d="M149.188 123.031C150.793 123.031 152.094 121.73 152.094 120.125C152.094 118.52 150.793 117.219 149.188 117.219C147.582 117.219 146.281 118.52 146.281 120.125C146.281 121.73 147.582 123.031 149.188 123.031Z" fill="#163A59"/>
</g>
<path d="M203.438 244.125H166.625V3.875H203.438V244.125ZM174.375 236.375H195.688V11.625H174.375V236.375Z" fill="#163A59"/>
<path d="M244.125 244.125H207.312V184.062H244.125V244.125ZM215.062 236.375H236.375V191.812H215.062V236.375Z" fill="#163A59"/>
<path d="M244.125 180.188H207.312V3.875H244.125V180.188ZM215.062 172.438H236.375V11.625H215.062V172.438Z" fill="#163A59"/>
<path d="M203.438 244.125H166.625V3.875H203.438V244.125ZM174.375 236.375H195.688V11.625H174.375V236.375Z" fill="#163A59"/>
<path d="M244.125 244.125H207.312V184.062H244.125V244.125ZM215.062 236.375H236.375V191.812H215.062V236.375Z" fill="#163A59"/>
<path d="M244.125 180.188H207.312V3.875H244.125V180.188ZM215.062 172.438H236.375V11.625H215.062V172.438Z" fill="#163A59"/>
<g opacity="0.3">
<path d="M220.875 169.531C222.48 169.531 223.781 168.23 223.781 166.625C223.781 165.02 222.48 163.719 220.875 163.719C219.27 163.719 217.969 165.02 217.969 166.625C217.969 168.23 219.27 169.531 220.875 169.531Z" fill="#163A59"/>
</g>
<g opacity="0.3">
<path d="M230.562 169.531C232.168 169.531 233.469 168.23 233.469 166.625C233.469 165.02 232.168 163.719 230.562 163.719C228.957 163.719 227.656 165.02 227.656 166.625C227.656 168.23 228.957 169.531 230.562 169.531Z" fill="#163A59"/>
</g>
<g opacity="0.3">
<path d="M180.188 233.469C181.793 233.469 183.094 232.168 183.094 230.562C183.094 228.957 181.793 227.656 180.188 227.656C178.582 227.656 177.281 228.957 177.281 230.562C177.281 232.168 178.582 233.469 180.188 233.469Z" fill="#163A59"/>
</g>
<g opacity="0.3">
<path d="M189.875 233.469C191.48 233.469 192.781 232.168 192.781 230.562C192.781 228.957 191.48 227.656 189.875 227.656C188.27 227.656 186.969 228.957 186.969 230.562C186.969 232.168 188.27 233.469 189.875 233.469Z" fill="#163A59"/>
</g>
<g opacity="0.3">
<path d="M180.188 20.3438C181.793 20.3438 183.094 19.0426 183.094 17.4375C183.094 15.8324 181.793 14.5312 180.188 14.5312C178.582 14.5312 177.281 15.8324 177.281 17.4375C177.281 19.0426 178.582 20.3438 180.188 20.3438Z" fill="#163A59"/>
</g>
<g opacity="0.3">
<path d="M189.875 20.3438C191.48 20.3438 192.781 19.0426 192.781 17.4375C192.781 15.8324 191.48 14.5312 189.875 14.5312C188.27 14.5312 186.969 15.8324 186.969 17.4375C186.969 19.0426 188.27 20.3438 189.875 20.3438Z" fill="#163A59"/>
</g>
<g opacity="0.3">
<path d="M220.875 200.531C222.48 200.531 223.781 199.23 223.781 197.625C223.781 196.02 222.48 194.719 220.875 194.719C219.27 194.719 217.969 196.02 217.969 197.625C217.969 199.23 219.27 200.531 220.875 200.531Z" fill="#163A59"/>
</g>
<g opacity="0.3">
<path d="M230.562 200.531C232.168 200.531 233.469 199.23 233.469 197.625C233.469 196.02 232.168 194.719 230.562 194.719C228.957 194.719 227.656 196.02 227.656 197.625C227.656 199.23 228.957 200.531 230.562 200.531Z" fill="#163A59"/>
</g>
</svg>
