<svg width="249" height="253" viewBox="0 0 249 253" fill="none" xmlns="http://www.w3.org/2000/svg">
<g filter="url(#filter0_d_27_379)">
<g opacity="0.3">
<path d="M216.062 31H208.312V62.1937H216.062V31Z" fill="#163A59"/>
</g>
<path d="M238.344 34.875V3.875H174.406V34.875H183.125V137.562H174.406V168.562H182.738C180.025 185.225 165.494 197.625 148.25 197.625C131.006 197.625 116.669 185.031 113.956 168.562H122.094V137.562H113.181C110.275 96.6813 76.95 63.9375 35.875 62V54.25H4.875V118.188H35.875V108.694C51.375 110.438 63.775 122.256 66.2938 137.562H58.1562V168.562H67.0687C69.975 210.8 105.237 244.125 148.25 244.125C191.456 244.125 226.525 211.188 229.431 168.562H238.344V137.562H229.625V34.875H238.344ZM28.125 110.438H12.625V62H28.125V110.438ZM35.875 100.944V69.75C72.6875 71.6875 102.525 100.75 105.431 137.369H74.2375C71.525 117.994 55.6375 102.688 35.875 100.944ZM65.9062 160.812V145.312H114.344V160.812H65.9062ZM148.25 236.375C109.5 236.375 77.725 206.344 74.8187 168.562H106.013C108.919 189.294 126.744 205.375 148.25 205.375C169.562 205.375 187.581 189.488 190.488 168.562H221.681C218.775 206.731 187 236.375 148.25 236.375ZM230.594 145.312V160.812H182.156V145.312H230.594ZM190.875 137.562V34.875H221.875V137.562H190.875ZM182.156 27.125V11.625H230.594V27.125H182.156Z" fill="#163A59"/>
<path opacity="0.3" d="M174.987 225.719C191.069 218.938 204.05 205.569 210.444 189.488L203.275 186.581C197.656 200.919 186.225 212.544 172.081 218.55L174.987 225.719Z" fill="#163A59"/>
</g>
<defs>
<filter id="filter0_d_27_379" x="-3" y="0" width="256" height="256" filterUnits="userSpaceOnUse" color-interpolation-filters="sRGB">
<feFlood flood-opacity="0" result="BackgroundImageFix"/>
<feColorMatrix in="SourceAlpha" type="matrix" values="0 0 0 0 0 0 0 0 0 0 0 0 0 0 0 0 0 0 127 0" result="hardAlpha"/>
<feOffset dy="4"/>
<feGaussianBlur stdDeviation="2"/>
<feComposite in2="hardAlpha" operator="out"/>
<feColorMatrix type="matrix" values="0 0 0 0 0 0 0 0 0 0 0 0 0 0 0 0 0 0 0.25 0"/>
<feBlend mode="normal" in2="BackgroundImageFix" result="effect1_dropShadow_27_379"/>
<feBlend mode="normal" in="SourceGraphic" in2="effect1_dropShadow_27_379" result="shape"/>
</filter>
</defs>
</svg>
