<svg width="22" height="22" viewBox="0 0 22 22" fill="none" xmlns="http://www.w3.org/2000/svg">
<path d="M19.9375 18.9654L14.7455 13.7734C15.9932 12.2755 16.6153 10.3543 16.4826 8.40942C16.3498 6.46453 15.4723 4.64569 14.0327 3.33128C12.5931 2.01687 10.7021 1.30808 8.75321 1.35236C6.80429 1.39664 4.94748 2.19059 3.56903 3.56903C2.19059 4.94748 1.39664 6.80429 1.35236 8.75321C1.30808 10.7021 2.01687 12.5931 3.33128 14.0327C4.64569 15.4723 6.46453 16.3498 8.40942 16.4826C10.3543 16.6153 12.2755 15.9932 13.7734 14.7455L18.9654 19.9375L19.9375 18.9654ZM2.74999 8.93749C2.74999 7.71372 3.11288 6.51743 3.79277 5.4999C4.47266 4.48237 5.43902 3.6893 6.56963 3.22098C7.70025 2.75267 8.94435 2.63013 10.1446 2.86888C11.3449 3.10763 12.4474 3.69693 13.3127 4.56226C14.178 5.4276 14.7674 6.53011 15.0061 7.73037C15.2448 8.93062 15.1223 10.1747 14.654 11.3053C14.1857 12.436 13.3926 13.4023 12.3751 14.0822C11.3575 14.7621 10.1613 15.125 8.93749 15.125C7.29702 15.1232 5.72426 14.4707 4.56427 13.3107C3.40429 12.1507 2.75181 10.578 2.74999 8.93749Z" fill="#736448" fill-opacity="0.4"/>
</svg>
