<svg width="36" height="36" viewBox="0 0 36 36" fill="none" xmlns="http://www.w3.org/2000/svg">
<path fill-rule="evenodd" clip-rule="evenodd" d="M4 0C1.79086 0 0 1.74237 0 3.89189V32.1081C0 34.2576 1.79086 36 4 36H32C34.2091 36 36 34.2576 36 32.1081V3.89189C36 1.74237 34.2091 0 32 0H4ZM26.3098 27.0416L29.9316 10.5279C30.2531 9.07174 29.3907 8.50306 28.4049 8.86032L7.11375 16.7911C5.6616 17.3406 5.68303 18.1278 6.86687 18.4851L12.3103 20.1327L24.9545 12.4349C25.5486 12.0512 26.0903 12.2641 25.6454 12.647L15.4178 21.5824L15.0209 27.0159C15.5892 27.0159 15.8353 26.7781 16.1301 26.4928L18.7927 24.0165L24.3116 27.9483C25.324 28.497 26.0363 28.207 26.3098 27.0416Z" fill="#5B83A6"/>
</svg>
