<svg width="30" height="30" viewBox="0 0 30 30" fill="none" xmlns="http://www.w3.org/2000/svg">
<path d="M20.625 1.875V0H9.375V1.875H5.625V3.75H3.75V30H26.25V28.125H28.125V1.875H20.625ZM11.25 1.875H18.75V5.625H11.25V1.875ZM24.375 28.125H5.625V5.625H9.375V7.5H20.625V5.625H24.375V28.125Z" fill="white"/>
<path d="M15 11.25C10.3125 11.25 12.5625 17.25 12.5625 17.25C13.125 18 13.875 18 13.875 18.375C13.875 18.9375 13.3125 18.9375 12.75 19.125C11.8125 19.3125 11.0625 18.9375 10.125 20.625C9.5625 21.375 9.375 24.375 9.375 24.375H20.625C20.625 24.375 20.4375 21.375 19.875 20.625C19.125 19.125 18.1875 19.3125 17.25 19.125C16.6875 19.125 16.125 18.9375 16.125 18.375C16.125 17.8125 16.6875 18 17.25 17.25C17.4375 17.25 19.6875 11.25 15 11.25Z" fill="white"/>
</svg>
