<svg width="248" height="248" viewBox="0 0 248 248" fill="none" xmlns="http://www.w3.org/2000/svg">
<path d="M244.125 122.45V70.9125H234.438V46.5V42.625V3.875H226.688V42.625H58.7063V70.9125H54.4438V78.6625H58.7063V106.95H97.8438V244.125H105.594V106.95H234.438V78.6625H236.375V115.862L139.5 131.944V171.662H128.263V244.125H158.681V171.856H147.25V138.531L244.125 122.45ZM226.688 99.2H66.4563V50.375H226.688V99.2ZM150.738 236.375H135.819V179.606H150.738V236.375Z" fill="#163A59"/>
<g opacity="0.3">
<path d="M78.4688 139.5H70.7188V147.25H78.4688V139.5Z" fill="#163A59"/>
</g>
<g opacity="0.3">
<path d="M206.344 3.875H198.594V11.625H206.344V3.875Z" fill="#163A59"/>
</g>
<g opacity="0.3">
<path d="M167.594 23.25H159.844V31H167.594V23.25Z" fill="#163A59"/>
</g>
<g opacity="0.3">
<path d="M90.0938 3.875H82.3438V11.625H90.0938V3.875Z" fill="#163A59"/>
</g>
<g opacity="0.3">
<path d="M45.5312 23.25H37.7812V31H45.5312V23.25Z" fill="#163A59"/>
</g>
<g opacity="0.3">
<path d="M78.4688 205.375H70.7188V244.125H78.4688V205.375Z" fill="#163A59"/>
</g>
<g opacity="0.3">
<path d="M13.5625 100.75H5.8125V108.5H13.5625V100.75Z" fill="#163A59"/>
</g>
<g opacity="0.3">
<path d="M13.5625 236.375H5.8125V244.125H13.5625V236.375Z" fill="#163A59"/>
</g>
<g opacity="0.3">
<path d="M13.5625 166.625H5.8125V205.375H13.5625V166.625Z" fill="#163A59"/>
</g>
<g opacity="0.3">
<path d="M13.5625 5.8125H5.8125V44.5625H13.5625V5.8125Z" fill="#163A59"/>
</g>
<g opacity="0.3">
<path d="M45.1438 219.325H37.3938V227.075H45.1438V219.325Z" fill="#163A59"/>
</g>
<g opacity="0.3">
<path d="M45.1438 122.45H37.3938V161.2H45.1438V122.45Z" fill="#163A59"/>
</g>
</svg>
