<svg width="36" height="36" viewBox="0 0 36 36" fill="none" xmlns="http://www.w3.org/2000/svg">
<path d="M36 32V4C36 1.8 34.194 0 31.99 0H4.01C1.71 0 0 1.706 0 4V32C0 34.296 1.71 36 4.01 36H31.99C33.0513 35.9984 34.0688 35.5768 34.8202 34.8273C35.5716 34.0778 35.9958 33.0613 36 32ZM28.368 21.214C28.368 21.214 30.632 23.448 31.19 24.484C31.206 24.506 31.212 24.526 31.218 24.534C31.444 24.914 31.502 25.214 31.388 25.434C31.2 25.8 30.56 25.984 30.342 26H26.344C26.064 26 25.484 25.928 24.78 25.442C24.24 25.066 23.706 24.444 23.186 23.838C22.41 22.938 21.738 22.158 21.062 22.158C20.9762 22.1578 20.8911 22.172 20.81 22.2C20.296 22.364 19.644 23.094 19.644 25.044C19.644 25.654 19.164 26.002 18.824 26.002H16.992C16.368 26.002 13.118 25.784 10.24 22.746C6.708 19.026 3.536 11.564 3.508 11.498C3.308 11.016 3.722 10.754 4.172 10.754H8.212C8.754 10.754 8.928 11.082 9.052 11.376C9.192 11.71 9.72 13.058 10.584 14.574C11.99 17.04 12.856 18.044 13.546 18.044C13.675 18.0433 13.8017 18.0095 13.914 17.946C14.816 17.448 14.648 14.232 14.608 13.568C14.608 13.442 14.606 12.13 14.146 11.5C13.814 11.044 13.252 10.87 12.912 10.804C13.0506 10.613 13.2331 10.458 13.444 10.352C14.062 10.044 15.176 10 16.284 10H16.9C18.102 10.016 18.414 10.094 18.848 10.204C19.726 10.414 19.744 10.984 19.666 12.924C19.644 13.476 19.62 14.102 19.62 14.836C19.62 14.994 19.614 15.168 19.614 15.348C19.586 16.34 19.554 17.462 20.254 17.922C20.3446 17.9787 20.4491 18.0092 20.556 18.01C20.8 18.01 21.53 18.01 23.508 14.616C24.378 13.118 25.048 11.35 25.094 11.218C25.1639 11.0753 25.2651 10.9502 25.39 10.852C25.4925 10.7988 25.6066 10.772 25.722 10.774H30.472C30.992 10.774 31.344 10.852 31.41 11.05C31.524 11.368 31.388 12.338 29.218 15.27L28.252 16.55C26.284 19.126 26.284 19.258 28.368 21.214Z" fill="#5B83A6"/>
</svg>
