<svg width="255" height="61" viewBox="0 0 255 61" fill="none" xmlns="http://www.w3.org/2000/svg">
<path d="M5 43.2903V19.353H11.8087L17.7618 31.5075L23.6776 19.353H30.4491V43.2903H23.4543V31.3217L19.6221 39.2016H15.8642L11.9948 31.3217V43.2903H5Z" fill="#163A59"/>
<path d="M55.3927 43.2903L64.5827 19.353H71.9867L81.1767 43.2903H73.8842L71.8751 38.1981H64.6571L62.6851 43.2903H55.3927ZM65.5872 33.1802H70.9449L68.2661 26.1551L65.5872 33.1802Z" fill="#163A59"/>
<path d="M113.017 43.662C111.405 43.662 109.879 43.5381 108.44 43.2903C107.002 43.0177 105.774 42.646 104.757 42.1752V36.4139C105.873 36.9343 107.113 37.3556 108.478 37.6777C109.842 37.9998 111.119 38.1609 112.31 38.1609C113.55 38.1609 114.48 38.0618 115.1 37.8635C115.745 37.6405 116.068 37.1573 116.068 36.4139C116.068 35.8935 115.882 35.4847 115.51 35.1873C115.162 34.89 114.604 34.6174 113.835 34.3696C113.091 34.1218 112.111 33.812 110.896 33.4403C109.284 32.92 108.006 32.35 107.064 31.7305C106.121 31.111 105.439 30.3553 105.017 29.4632C104.621 28.5711 104.422 27.4808 104.422 26.1922C104.422 23.8382 105.253 22.054 106.915 20.8398C108.602 19.6008 111.094 18.9813 114.393 18.9813C115.708 18.9813 117.06 19.0928 118.449 19.3159C119.863 19.5389 121.004 19.7867 121.872 20.0592V25.8577C120.706 25.3869 119.59 25.0524 118.523 24.8541C117.457 24.6559 116.452 24.5568 115.51 24.5568C114.418 24.5568 113.488 24.6435 112.719 24.817C111.95 24.9904 111.566 25.4365 111.566 26.1551C111.566 26.7746 111.888 27.233 112.533 27.5304C113.203 27.8029 114.381 28.1622 116.068 28.6083C118.027 29.1287 119.515 29.7605 120.532 30.5039C121.574 31.2473 122.281 32.1146 122.653 33.1058C123.025 34.0722 123.211 35.1749 123.211 36.4139C123.211 38.5945 122.368 40.3539 120.681 41.692C118.995 43.0054 116.44 43.662 113.017 43.662Z" fill="#163A59"/>
<path d="M153.374 43.2903V24.5568H146.64V19.353H167.103V24.5568H160.369V43.2903H153.374Z" fill="#163A59"/>
<path d="M191.271 43.2903V19.353H209.428V24.7055H198.266V28.6083H208.051V34.0351H198.266V37.9379H209.428V43.2903H191.271Z" fill="#163A59"/>
<path d="M233.978 43.2903V19.353H246.443C248.402 19.353 250.002 19.7123 251.242 20.4309C252.507 21.1496 253.45 22.1531 254.07 23.4417C254.69 24.7055 255 26.1799 255 27.8649C255 29.4756 254.591 30.9004 253.772 32.1394C252.978 33.3536 251.912 34.2829 250.572 34.9271C250.845 35.1502 251.081 35.4227 251.279 35.7449C251.478 36.0422 251.701 36.4635 251.949 37.0086L254.702 43.2903H247.41L244.88 37.529C244.681 37.083 244.433 36.7732 244.136 36.5998C243.863 36.4015 243.466 36.3024 242.945 36.3024H240.973V43.2903H233.978ZM240.973 30.95H244.657C245.674 30.95 246.455 30.6898 247.001 30.1694C247.571 29.6243 247.856 28.8561 247.856 27.8649C247.856 25.7586 246.864 24.7055 244.88 24.7055H240.973V30.95Z" fill="#163A59"/>
<path d="M16.02 0C14.9265 0 14.04 0.891548 14.04 1.99133V15.297C14.04 15.9469 13.5162 16.4737 12.87 16.4737C12.2238 16.4737 11.7 15.9469 11.7 15.297V4.71998C6.08344 7.08442 2.16 12.4705 2.16 18.7366C2.16 19.7602 2.2647 20.6368 2.46439 21.3869C0.898066 21.9372 0 22.5782 0 23.2624C0 25.3119 8.05887 26.9735 18 26.9735C27.9411 26.9735 36 25.3119 36 23.2624C36 22.6024 35.1645 21.9827 33.6997 21.4457C33.9097 20.6827 34.02 19.7871 34.02 18.7366C34.02 12.5377 30.1802 7.19998 24.66 4.79704V15.116C24.66 15.8659 24.0556 16.4737 23.31 16.4737C22.5644 16.4737 21.96 15.8659 21.96 15.116V1.99133C21.96 0.891548 21.0735 0 19.98 0H16.02Z" fill="#736448"/>
<path d="M6.9483 60.9401V52.5483H7.4643L11.3643 59.2737H11.0883L14.9763 52.5483H15.4803L15.4923 60.9401H14.8923L14.8803 53.4714H15.0483L11.3643 59.8252H11.0643L7.3683 53.4714H7.5483V60.9401H6.9483Z" fill="#736448"/>
<path d="M26.9147 61C26.2907 61 25.7107 60.8961 25.1747 60.6883C24.6467 60.4725 24.1827 60.1728 23.7827 59.7892C23.3907 59.3976 23.0867 58.946 22.8707 58.4345C22.6547 57.915 22.5467 57.3516 22.5467 56.7442C22.5467 56.1368 22.6547 55.5773 22.8707 55.0658C23.0867 54.5463 23.3907 54.0948 23.7827 53.7112C24.1827 53.3196 24.6467 53.0199 25.1747 52.8121C25.7107 52.5963 26.2907 52.4884 26.9147 52.4884C27.5387 52.4884 28.1147 52.5963 28.6427 52.8121C29.1787 53.0199 29.6427 53.3156 30.0347 53.6992C30.4267 54.0828 30.7307 54.5344 30.9467 55.0538C31.1707 55.5653 31.2827 56.1288 31.2827 56.7442C31.2827 57.3596 31.1707 57.927 30.9467 58.4465C30.7307 58.958 30.4267 59.4056 30.0347 59.7892C29.6427 60.1728 29.1787 60.4725 28.6427 60.6883C28.1147 60.8961 27.5387 61 26.9147 61ZM26.9147 60.4366C27.4507 60.4366 27.9467 60.3446 28.4027 60.1608C28.8587 59.977 29.2547 59.7173 29.5907 59.3816C29.9267 59.0459 30.1867 58.6543 30.3707 58.2067C30.5627 57.7592 30.6587 57.2717 30.6587 56.7442C30.6587 56.2087 30.5627 55.7212 30.3707 55.2816C30.1867 54.8341 29.9267 54.4425 29.5907 54.1068C29.2547 53.7711 28.8587 53.5114 28.4027 53.3275C27.9467 53.1437 27.4507 53.0518 26.9147 53.0518C26.3787 53.0518 25.8827 53.1437 25.4267 53.3275C24.9707 53.5114 24.5707 53.7711 24.2267 54.1068C23.8907 54.4425 23.6267 54.8341 23.4347 55.2816C23.2507 55.7212 23.1587 56.2087 23.1587 56.7442C23.1587 57.2717 23.2507 57.7592 23.4347 58.2067C23.6267 58.6543 23.8907 59.0459 24.2267 59.3816C24.5707 59.7173 24.9707 59.977 25.4267 60.1608C25.8827 60.3446 26.3787 60.4366 26.9147 60.4366Z" fill="#736448"/>
<path d="M44.5732 52.5483H45.1852V60.9401H44.5732V52.5483ZM38.9572 60.9401H38.3452V52.5483H38.9572V60.9401ZM44.6452 56.948H38.8852V56.4085H44.6452V56.948Z" fill="#736448"/>
<path d="M54.6444 60.9401V52.908L54.8244 53.0998H51.6204V52.5483H58.2804V53.0998H55.0764L55.2564 52.908V60.9401H54.6444Z" fill="#736448"/>
<path d="M63.0088 60.9401L66.8728 52.5483H67.4848L71.3488 60.9401H70.6888L67.0408 52.9319H67.3048L63.6688 60.9401H63.0088ZM64.4248 58.5784L64.6288 58.0629H69.6568L69.8608 58.5784H64.4248Z" fill="#736448"/>
<path d="M86.9026 60.9401L83.9626 56.7202L84.4906 56.4205L87.6346 60.9401H86.9026ZM82.0906 56.96V56.4085H84.4306V56.96H82.0906ZM84.5146 56.8041L83.9506 56.6842L86.7106 52.5483H87.3946L84.5146 56.8041ZM77.0626 60.9401H76.3306L79.4626 56.4205L80.0026 56.7202L77.0626 60.9401ZM82.2826 60.9401H81.6826V52.5483H82.2826V60.9401ZM81.8746 56.96H79.5346V56.4085H81.8746V56.96ZM79.4506 56.8041L76.5586 52.5483H77.2546L80.0026 56.6842L79.4506 56.8041Z" fill="#736448"/>
<path d="M100.207 52.5483H100.819V60.9401H100.207V52.5483ZM94.5908 60.9401H93.9788V52.5483H94.5908V60.9401ZM100.279 56.948H94.5188V56.4085H100.279V56.948Z" fill="#736448"/>
<path d="M107.362 60.9401L111.226 52.5483H111.838L115.702 60.9401H115.042L111.394 52.9319H111.658L108.022 60.9401H107.362ZM108.778 58.5784L108.982 58.0629H114.01L114.214 58.5784H108.778Z" fill="#736448"/>
<path d="M127.02 60.9401V58.1228L127.212 58.3027H124.344C123.696 58.3027 123.136 58.1908 122.664 57.967C122.2 57.7432 121.844 57.4195 121.596 56.9959C121.356 56.5724 121.236 56.0649 121.236 55.4734C121.236 54.8421 121.368 54.3106 121.632 53.879C121.904 53.4394 122.28 53.1078 122.76 52.884C123.248 52.6602 123.816 52.5483 124.464 52.5483H127.632V60.9401H127.02ZM121.236 60.9401L123.288 58.0029H123.936L121.896 60.9401H121.236ZM127.02 57.967V52.908L127.212 53.0998H124.512C123.672 53.0998 123.02 53.2996 122.556 53.6992C122.092 54.0988 121.86 54.6862 121.86 55.4614C121.86 56.1967 122.072 56.7682 122.496 57.1758C122.928 57.5754 123.564 57.7752 124.404 57.7752H127.212L127.02 57.967Z" fill="#736448"/>
<path d="M149.175 60.9401L145.779 56.7202L146.295 56.4205L149.895 60.9401H149.175ZM143.343 60.9401V52.5483H143.955V60.9401H143.343ZM143.751 56.96V56.4085H146.307V56.96H143.751ZM146.331 56.8041L145.767 56.6842L148.995 52.5483H149.679L146.331 56.8041Z" fill="#736448"/>
<path d="M159.782 61C159.158 61 158.578 60.8961 158.042 60.6883C157.514 60.4725 157.05 60.1728 156.65 59.7892C156.258 59.3976 155.954 58.946 155.738 58.4345C155.522 57.915 155.414 57.3516 155.414 56.7442C155.414 56.1368 155.522 55.5773 155.738 55.0658C155.954 54.5463 156.258 54.0948 156.65 53.7112C157.05 53.3196 157.514 53.0199 158.042 52.8121C158.578 52.5963 159.158 52.4884 159.782 52.4884C160.406 52.4884 160.982 52.5963 161.51 52.8121C162.046 53.0199 162.51 53.3156 162.902 53.6992C163.294 54.0828 163.598 54.5344 163.814 55.0538C164.038 55.5653 164.15 56.1288 164.15 56.7442C164.15 57.3596 164.038 57.927 163.814 58.4465C163.598 58.958 163.294 59.4056 162.902 59.7892C162.51 60.1728 162.046 60.4725 161.51 60.6883C160.982 60.8961 160.406 61 159.782 61ZM159.782 60.4366C160.318 60.4366 160.814 60.3446 161.27 60.1608C161.726 59.977 162.122 59.7173 162.458 59.3816C162.794 59.0459 163.054 58.6543 163.238 58.2067C163.43 57.7592 163.526 57.2717 163.526 56.7442C163.526 56.2087 163.43 55.7212 163.238 55.2816C163.054 54.8341 162.794 54.4425 162.458 54.1068C162.122 53.7711 161.726 53.5114 161.27 53.3275C160.814 53.1437 160.318 53.0518 159.782 53.0518C159.246 53.0518 158.75 53.1437 158.294 53.3275C157.838 53.5114 157.438 53.7711 157.094 54.1068C156.758 54.4425 156.494 54.8341 156.302 55.2816C156.118 55.7212 156.026 56.2087 156.026 56.7442C156.026 57.2717 156.118 57.7592 156.302 58.2067C156.494 58.6543 156.758 59.0459 157.094 59.3816C157.438 59.7173 157.838 59.977 158.294 60.1608C158.75 60.3446 159.246 60.4366 159.782 60.4366Z" fill="#736448"/>
<path d="M171.212 60.9401V52.5483H171.728L175.628 59.2737H175.352L179.24 52.5483H179.744L179.756 60.9401H179.156L179.144 53.4714H179.312L175.628 59.8252H175.328L171.632 53.4714H171.812V60.9401H171.212Z" fill="#736448"/>
<path d="M187.579 60.9401V52.5483H194.491V60.9401H193.879V52.908L194.059 53.0998H188.011L188.191 52.908V60.9401H187.579Z" fill="#736448"/>
<path d="M201.032 60.9401L204.896 52.5483H205.508L209.372 60.9401H208.712L205.064 52.9319H205.328L201.692 60.9401H201.032ZM202.448 58.5784L202.652 58.0629H207.68L207.884 58.5784H202.448Z" fill="#736448"/>
<path d="M222.145 52.5483H222.757V60.9401H222.145V52.5483ZM216.529 60.9401H215.917V52.5483H216.529V60.9401ZM222.217 56.948H216.457V56.4085H222.217V56.948Z" fill="#736448"/>
<path d="M230.584 60.9401V52.5483H231.196V59.9091L236.92 52.5483H237.46V60.9401H236.848V53.5913L231.124 60.9401H230.584Z" fill="#736448"/>
<path d="M250.435 60.9401V58.1228L250.627 58.3027H247.759C247.111 58.3027 246.551 58.1908 246.079 57.967C245.615 57.7432 245.259 57.4195 245.011 56.9959C244.771 56.5724 244.651 56.0649 244.651 55.4734C244.651 54.8421 244.783 54.3106 245.047 53.879C245.319 53.4394 245.695 53.1078 246.175 52.884C246.663 52.6602 247.231 52.5483 247.879 52.5483H251.047V60.9401H250.435ZM244.651 60.9401L246.703 58.0029H247.351L245.311 60.9401H244.651ZM250.435 57.967V52.908L250.627 53.0998H247.927C247.087 53.0998 246.435 53.2996 245.971 53.6992C245.507 54.0988 245.275 54.6862 245.275 55.4614C245.275 56.1967 245.487 56.7682 245.911 57.1758C246.343 57.5754 246.979 57.7752 247.819 57.7752H250.627L250.435 57.967Z" fill="#736448"/>
</svg>
