<svg width="255" height="61" viewBox="0 0 255 61" fill="none" xmlns="http://www.w3.org/2000/svg">
<path d="M5 43.2904V19.3531H11.8087L17.7618 31.5076L23.6776 19.3531H30.4491V43.2904H23.4543V31.3218L19.6221 39.2018H15.8642L11.9948 31.3218V43.2904H5Z" fill="white"/>
<path d="M55.3927 43.2904L64.5827 19.3531H71.9867L81.1767 43.2904H73.8842L71.8751 38.1982H64.6571L62.6851 43.2904H55.3927ZM65.5872 33.1803H70.9449L68.2661 26.1552L65.5872 33.1803Z" fill="white"/>
<path d="M113.017 43.6621C111.405 43.6621 109.879 43.5382 108.44 43.2904C107.002 43.0179 105.774 42.6462 104.757 42.1753V36.414C105.873 36.9344 107.113 37.3557 108.478 37.6778C109.842 38 111.119 38.161 112.31 38.161C113.55 38.161 114.48 38.0619 115.1 37.8637C115.745 37.6406 116.068 37.1574 116.068 36.414C116.068 35.8937 115.882 35.4848 115.51 35.1874C115.162 34.8901 114.604 34.6175 113.835 34.3697C113.091 34.1219 112.111 33.8122 110.896 33.4405C109.284 32.9201 108.006 32.3502 107.064 31.7307C106.121 31.1112 105.439 30.3554 105.017 29.4633C104.621 28.5712 104.422 27.4809 104.422 26.1924C104.422 23.8383 105.253 22.0541 106.915 20.8399C108.602 19.6009 111.094 18.9814 114.393 18.9814C115.708 18.9814 117.06 19.093 118.449 19.316C119.863 19.539 121.004 19.7868 121.872 20.0594V25.8578C120.706 25.387 119.59 25.0525 118.523 24.8543C117.457 24.656 116.452 24.5569 115.51 24.5569C114.418 24.5569 113.488 24.6436 112.719 24.8171C111.95 24.9906 111.566 25.4366 111.566 26.1552C111.566 26.7747 111.888 27.2331 112.533 27.5305C113.203 27.8031 114.381 28.1624 116.068 28.6084C118.027 29.1288 119.515 29.7607 120.532 30.5041C121.574 31.2475 122.281 32.1147 122.653 33.1059C123.025 34.0724 123.211 35.1751 123.211 36.414C123.211 38.5947 122.368 40.354 120.681 41.6921C118.995 43.0055 116.44 43.6621 113.017 43.6621Z" fill="white"/>
<path d="M153.374 43.2904V24.5569H146.64V19.3531H167.103V24.5569H160.369V43.2904H153.374Z" fill="white"/>
<path d="M191.271 43.2904V19.3531H209.428V24.7056H198.266V28.6084H208.051V34.0352H198.266V37.938H209.428V43.2904H191.271Z" fill="white"/>
<path d="M233.978 43.2904V19.3531H246.443C248.402 19.3531 250.002 19.7124 251.242 20.4311C252.507 21.1497 253.45 22.1533 254.07 23.4418C254.69 24.7056 255 26.18 255 27.865C255 29.4757 254.591 30.9005 253.772 32.1395C252.978 33.3537 251.912 34.283 250.572 34.9273C250.845 35.1503 251.081 35.4229 251.279 35.745C251.478 36.0423 251.701 36.4636 251.949 37.0088L254.702 43.2904H247.41L244.88 37.5291C244.681 37.0831 244.433 36.7733 244.136 36.5999C243.863 36.4017 243.466 36.3025 242.945 36.3025H240.973V43.2904H233.978ZM240.973 30.9501H244.657C245.674 30.9501 246.455 30.6899 247.001 30.1695C247.571 29.6244 247.856 28.8562 247.856 27.865C247.856 25.7587 246.864 24.7056 244.88 24.7056H240.973V30.9501Z" fill="white"/>
<path d="M16.02 0C14.9265 0 14.04 0.891548 14.04 1.99133V15.297C14.04 15.9469 13.5162 16.4737 12.87 16.4737C12.2238 16.4737 11.7 15.9469 11.7 15.297V4.71998C6.08344 7.08442 2.16 12.4705 2.16 18.7366C2.16 19.7602 2.2647 20.6368 2.46439 21.3869C0.898066 21.9372 0 22.5782 0 23.2624C0 25.3119 8.05887 26.9735 18 26.9735C27.9411 26.9735 36 25.3119 36 23.2624C36 22.6024 35.1645 21.9827 33.6997 21.4457C33.9097 20.6827 34.02 19.7871 34.02 18.7366C34.02 12.5377 30.1802 7.19998 24.66 4.79704V15.116C24.66 15.8659 24.0556 16.4737 23.31 16.4737C22.5644 16.4737 21.96 15.8659 21.96 15.116V1.99133C21.96 0.891548 21.0735 0 19.98 0H16.02Z" fill="#5B83A6"/>
<path d="M6.9483 60.94V52.5482H7.4643L11.3643 59.2736H11.0883L14.9763 52.5482H15.4803L15.4923 60.94H14.8923L14.8803 53.4713H15.0483L11.3643 59.8251H11.0643L7.3683 53.4713H7.5483V60.94H6.9483Z" fill="#5B83A6"/>
<path d="M26.9147 60.9999C26.2907 60.9999 25.7107 60.896 25.1747 60.6882C24.6467 60.4724 24.1827 60.1727 23.7827 59.7891C23.3907 59.3975 23.0867 58.9459 22.8707 58.4344C22.6547 57.9149 22.5467 57.3515 22.5467 56.7441C22.5467 56.1367 22.6547 55.5772 22.8707 55.0657C23.0867 54.5463 23.3907 54.0947 23.7827 53.7111C24.1827 53.3195 24.6467 53.0198 25.1747 52.812C25.7107 52.5962 26.2907 52.4883 26.9147 52.4883C27.5387 52.4883 28.1147 52.5962 28.6427 52.812C29.1787 53.0198 29.6427 53.3155 30.0347 53.6991C30.4267 54.0827 30.7307 54.5343 30.9467 55.0538C31.1707 55.5653 31.2827 56.1287 31.2827 56.7441C31.2827 57.3595 31.1707 57.9269 30.9467 58.4464C30.7307 58.9579 30.4267 59.4055 30.0347 59.7891C29.6427 60.1727 29.1787 60.4724 28.6427 60.6882C28.1147 60.896 27.5387 60.9999 26.9147 60.9999ZM26.9147 60.4365C27.4507 60.4365 27.9467 60.3446 28.4027 60.1607C28.8587 59.9769 29.2547 59.7172 29.5907 59.3815C29.9267 59.0458 30.1867 58.6542 30.3707 58.2067C30.5627 57.7591 30.6587 57.2716 30.6587 56.7441C30.6587 56.2086 30.5627 55.7211 30.3707 55.2815C30.1867 54.834 29.9267 54.4424 29.5907 54.1067C29.2547 53.771 28.8587 53.5113 28.4027 53.3275C27.9467 53.1436 27.4507 53.0517 26.9147 53.0517C26.3787 53.0517 25.8827 53.1436 25.4267 53.3275C24.9707 53.5113 24.5707 53.771 24.2267 54.1067C23.8907 54.4424 23.6267 54.834 23.4347 55.2815C23.2507 55.7211 23.1587 56.2086 23.1587 56.7441C23.1587 57.2716 23.2507 57.7591 23.4347 58.2067C23.6267 58.6542 23.8907 59.0458 24.2267 59.3815C24.5707 59.7172 24.9707 59.9769 25.4267 60.1607C25.8827 60.3446 26.3787 60.4365 26.9147 60.4365Z" fill="#5B83A6"/>
<path d="M44.5732 52.5482H45.1852V60.94H44.5732V52.5482ZM38.9572 60.94H38.3452V52.5482H38.9572V60.94ZM44.6452 56.9479H38.8852V56.4084H44.6452V56.9479Z" fill="#5B83A6"/>
<path d="M54.6444 60.94V52.9079L54.8244 53.0997H51.6204V52.5482H58.2804V53.0997H55.0764L55.2564 52.9079V60.94H54.6444Z" fill="#5B83A6"/>
<path d="M63.0088 60.94L66.8728 52.5482H67.4848L71.3488 60.94H70.6888L67.0408 52.9318H67.3048L63.6688 60.94H63.0088ZM64.4248 58.5783L64.6288 58.0628H69.6568L69.8608 58.5783H64.4248Z" fill="#5B83A6"/>
<path d="M86.9026 60.94L83.9626 56.7201L84.4906 56.4204L87.6346 60.94H86.9026ZM82.0906 56.9599V56.4084H84.4306V56.9599H82.0906ZM84.5146 56.804L83.9506 56.6842L86.7106 52.5482H87.3946L84.5146 56.804ZM77.0626 60.94H76.3306L79.4626 56.4204L80.0026 56.7201L77.0626 60.94ZM82.2826 60.94H81.6826V52.5482H82.2826V60.94ZM81.8746 56.9599H79.5346V56.4084H81.8746V56.9599ZM79.4506 56.804L76.5586 52.5482H77.2546L80.0026 56.6842L79.4506 56.804Z" fill="#5B83A6"/>
<path d="M100.207 52.5482H100.819V60.94H100.207V52.5482ZM94.5908 60.94H93.9788V52.5482H94.5908V60.94ZM100.279 56.9479H94.5188V56.4084H100.279V56.9479Z" fill="#5B83A6"/>
<path d="M107.362 60.94L111.226 52.5482H111.838L115.702 60.94H115.042L111.394 52.9318H111.658L108.022 60.94H107.362ZM108.778 58.5783L108.982 58.0628H114.01L114.214 58.5783H108.778Z" fill="#5B83A6"/>
<path d="M127.02 60.94V58.1227L127.212 58.3026H124.344C123.696 58.3026 123.136 58.1907 122.664 57.9669C122.2 57.7431 121.844 57.4194 121.596 56.9958C121.356 56.5723 121.236 56.0648 121.236 55.4733C121.236 54.842 121.368 54.3105 121.632 53.8789C121.904 53.4393 122.28 53.1077 122.76 52.8839C123.248 52.6601 123.816 52.5482 124.464 52.5482H127.632V60.94H127.02ZM121.236 60.94L123.288 58.0029H123.936L121.896 60.94H121.236ZM127.02 57.9669V52.9079L127.212 53.0997H124.512C123.672 53.0997 123.02 53.2995 122.556 53.6991C122.092 54.0987 121.86 54.6861 121.86 55.4614C121.86 56.1966 122.072 56.7681 122.496 57.1757C122.928 57.5753 123.564 57.7751 124.404 57.7751H127.212L127.02 57.9669Z" fill="#5B83A6"/>
<path d="M149.175 60.94L145.779 56.7201L146.295 56.4204L149.895 60.94H149.175ZM143.343 60.94V52.5482H143.955V60.94H143.343ZM143.751 56.9599V56.4084H146.307V56.9599H143.751ZM146.331 56.804L145.767 56.6842L148.995 52.5482H149.679L146.331 56.804Z" fill="#5B83A6"/>
<path d="M159.782 60.9999C159.158 60.9999 158.578 60.896 158.042 60.6882C157.514 60.4724 157.05 60.1727 156.65 59.7891C156.258 59.3975 155.954 58.9459 155.738 58.4344C155.522 57.9149 155.414 57.3515 155.414 56.7441C155.414 56.1367 155.522 55.5772 155.738 55.0657C155.954 54.5463 156.258 54.0947 156.65 53.7111C157.05 53.3195 157.514 53.0198 158.042 52.812C158.578 52.5962 159.158 52.4883 159.782 52.4883C160.406 52.4883 160.982 52.5962 161.51 52.812C162.046 53.0198 162.51 53.3155 162.902 53.6991C163.294 54.0827 163.598 54.5343 163.814 55.0538C164.038 55.5653 164.15 56.1287 164.15 56.7441C164.15 57.3595 164.038 57.9269 163.814 58.4464C163.598 58.9579 163.294 59.4055 162.902 59.7891C162.51 60.1727 162.046 60.4724 161.51 60.6882C160.982 60.896 160.406 60.9999 159.782 60.9999ZM159.782 60.4365C160.318 60.4365 160.814 60.3446 161.27 60.1607C161.726 59.9769 162.122 59.7172 162.458 59.3815C162.794 59.0458 163.054 58.6542 163.238 58.2067C163.43 57.7591 163.526 57.2716 163.526 56.7441C163.526 56.2086 163.43 55.7211 163.238 55.2815C163.054 54.834 162.794 54.4424 162.458 54.1067C162.122 53.771 161.726 53.5113 161.27 53.3275C160.814 53.1436 160.318 53.0517 159.782 53.0517C159.246 53.0517 158.75 53.1436 158.294 53.3275C157.838 53.5113 157.438 53.771 157.094 54.1067C156.758 54.4424 156.494 54.834 156.302 55.2815C156.118 55.7211 156.026 56.2086 156.026 56.7441C156.026 57.2716 156.118 57.7591 156.302 58.2067C156.494 58.6542 156.758 59.0458 157.094 59.3815C157.438 59.7172 157.838 59.9769 158.294 60.1607C158.75 60.3446 159.246 60.4365 159.782 60.4365Z" fill="#5B83A6"/>
<path d="M171.212 60.94V52.5482H171.728L175.628 59.2736H175.352L179.24 52.5482H179.744L179.756 60.94H179.156L179.144 53.4713H179.312L175.628 59.8251H175.328L171.632 53.4713H171.812V60.94H171.212Z" fill="#5B83A6"/>
<path d="M187.579 60.94V52.5482H194.491V60.94H193.879V52.9079L194.059 53.0997H188.011L188.191 52.9079V60.94H187.579Z" fill="#5B83A6"/>
<path d="M201.032 60.94L204.896 52.5482H205.508L209.372 60.94H208.712L205.064 52.9318H205.328L201.692 60.94H201.032ZM202.448 58.5783L202.652 58.0628H207.68L207.884 58.5783H202.448Z" fill="#5B83A6"/>
<path d="M222.145 52.5482H222.757V60.94H222.145V52.5482ZM216.529 60.94H215.917V52.5482H216.529V60.94ZM222.217 56.9479H216.457V56.4084H222.217V56.9479Z" fill="#5B83A6"/>
<path d="M230.584 60.94V52.5482H231.196V59.909L236.92 52.5482H237.46V60.94H236.848V53.5912L231.124 60.94H230.584Z" fill="#5B83A6"/>
<path d="M250.435 60.94V58.1227L250.627 58.3026H247.759C247.111 58.3026 246.551 58.1907 246.079 57.9669C245.615 57.7431 245.259 57.4194 245.011 56.9958C244.771 56.5723 244.651 56.0648 244.651 55.4733C244.651 54.842 244.783 54.3105 245.047 53.8789C245.319 53.4393 245.695 53.1077 246.175 52.8839C246.663 52.6601 247.231 52.5482 247.879 52.5482H251.047V60.94H250.435ZM244.651 60.94L246.703 58.0029H247.351L245.311 60.94H244.651ZM250.435 57.9669V52.9079L250.627 53.0997H247.927C247.087 53.0997 246.435 53.2995 245.971 53.6991C245.507 54.0987 245.275 54.6861 245.275 55.4614C245.275 56.1966 245.487 56.7681 245.911 57.1757C246.343 57.5753 246.979 57.7751 247.819 57.7751H250.627L250.435 57.9669Z" fill="#5B83A6"/>
</svg>
